<?xml version="1.0" encoding="utf-8"?>
<!-- Generator: Adobe Illustrator 28.1.0, SVG Export Plug-In . SVG Version: 6.00 Build 0)  -->
<svg version="1.1" xmlns="http://www.w3.org/2000/svg" xmlns:xlink="http://www.w3.org/1999/xlink" x="0px" y="0px"
	 viewBox="0 0 55 43.6" style="enable-background:new 0 0 55 43.6;" xml:space="preserve">
<style type="text/css">
	.st0{fill:#FFFFFF;}
	.st1{fill:#FF1400;}
	.st2{clip-path:url(#SVGID_00000160881099544938644920000012321865151034780567_);}
	.st3{fill:#FFFFFF;stroke:#000000;stroke-miterlimit:10;}
	.st4{fill:none;stroke:#000000;stroke-width:1.5;stroke-miterlimit:10;}
	.st5{fill:none;}
	.st6{clip-path:url(#SVGID_00000044156025528195394480000013569285806988875403_);}
	.st7{fill:#DB0A00;}
	.st8{clip-path:url(#SVGID_00000155855858053958285950000009339134357301665671_);}
	.st9{clip-path:url(#SVGID_00000165219311238728180170000014982716964837572273_);}
	.st10{clip-path:url(#SVGID_00000034776168328191393000000001667095348504559282_);}
	.st11{clip-path:url(#SVGID_00000066498626464740049370000012747386133042198417_);}
	.st12{clip-path:url(#SVGID_00000161621224672573148660000002048047431786364082_);}
	.st13{clip-path:url(#SVGID_00000113335115963843841740000009612019026492042929_);}
	.st14{clip-path:url(#SVGID_00000116232490179282270440000005235891292981362819_);}
	.st15{clip-path:url(#SVGID_00000003828018040394878610000007595161606368625803_);}
	.st16{clip-path:url(#SVGID_00000137129495314445639970000013271791516278346370_);}
	.st17{fill:#606060;}
	.st18{fill:#E8E8E8;}
	.st19{clip-path:url(#SVGID_00000045585273318077279810000011526783659067280522_);}
	.st20{clip-path:url(#SVGID_00000174566036479690797830000015189340874549966225_);}
	.st21{fill:#CE0000;}
	.st22{clip-path:url(#SVGID_00000165205992887139007230000003601309245429416349_);}
	.st23{clip-path:url(#SVGID_00000104690846567395775420000012602567054013260718_);}
	.st24{clip-path:url(#SVGID_00000072990330134533479770000017666000842931462282_);}
	.st25{clip-path:url(#SVGID_00000003063134862232123250000017307794645851291531_);}
	.st26{clip-path:url(#SVGID_00000022550542378262600890000004357155838020125850_);}
	.st27{clip-path:url(#SVGID_00000019658480552050652560000015111716095848155803_);}
	.st28{clip-path:url(#SVGID_00000142868958981633678690000000859058327991950228_);}
	.st29{clip-path:url(#SVGID_00000078739178980094376080000004204076763990916008_);}
	.st30{clip-path:url(#SVGID_00000144317539170872779590000010430532006600378027_);}
	.st31{clip-path:url(#SVGID_00000183246918954030060780000011915748226529884311_);}
	.st32{clip-path:url(#SVGID_00000145748570798032072960000013464994283393330565_);}
	.st33{clip-path:url(#SVGID_00000101795154450891726960000005736252682677130902_);}
	.st34{clip-path:url(#SVGID_00000054987012438468382130000013965778718991598472_);}
	.st35{clip-path:url(#SVGID_00000018232546938597631110000000890564043169263536_);}
	.st36{clip-path:url(#SVGID_00000057849570319978227810000007007207477889690255_);}
	.st37{clip-path:url(#SVGID_00000183932869631285940290000012707609169854146194_);}
	.st38{clip-path:url(#SVGID_00000179614703778439251710000004237460079150607242_);}
	.st39{clip-path:url(#SVGID_00000073699178194987017870000013403017651951406271_);}
	.st40{clip-path:url(#SVGID_00000167391915723387266760000007234137628522404777_);}
	.st41{clip-path:url(#SVGID_00000105390180946895879480000005792944059901236375_);}
	.st42{clip-path:url(#SVGID_00000132050638083898166800000008265739909749391758_);}
	.st43{clip-path:url(#SVGID_00000014630706419184613160000005194541741194139309_);}
	.st44{clip-path:url(#SVGID_00000167359597147325536730000015377694141374024888_);}
	.st45{opacity:0.7;}
	.st46{opacity:0.95;fill:#FF1400;}
	.st47{opacity:0.8;fill:#FF1400;}
	.st48{opacity:0.8;}
	.st49{fill:none;stroke:#FF1F95;stroke-width:3;stroke-linecap:round;stroke-linejoin:round;stroke-miterlimit:10;}
</style>
<g id="Layer_2">
</g>
<g id="Layer_1">
	<path class="st1" d="M53,10.2c-1.3-2.9-3.1-5.1-5.6-6.6c-2.4-1.5-5.3-2.5-8.7-3c-3-0.4-6.3-0.6-9.9-0.7v0h-2.7v0
		c-3.5,0-6.7,0.3-9.6,0.7c-3.4,0.4-6.3,1.4-8.7,3C5.3,5.2,3.4,7.4,2,10.2c-1.4,2.9-2,6.7-2,11.6c0,4.8,0.7,8.7,2,11.6
		c1.4,2.9,3.3,5.1,5.7,6.6c2.4,1.5,5.3,2.5,8.7,3c3.4,0.4,7.1,0.7,11.1,0.7c4.1,0,7.8-0.2,11.2-0.7c3.4-0.4,6.3-1.4,8.7-3
		c2.4-1.5,4.3-3.7,5.6-6.6c1.3-2.9,1.9-6.7,1.9-11.6C55,16.9,54.3,13.1,53,10.2z M2.7,21.8c0-1.6,0.1-3.1,0.2-4.5h9.1
		c-0.1,0.5-0.2,1.1-0.3,1.6c-0.4,2.5-0.3,5,0.2,7.4H3C2.8,24.9,2.7,23.4,2.7,21.8z M14.4,19.3c0.1-0.7,0.3-1.4,0.5-2h11.2v9H14.8
		C14.2,24.1,14,21.8,14.4,19.3z M28.9,3.2c3.4,1.9,7.8,6.1,10.2,11.4H28.9V3.2z M26.1,14.6H15.9C18.3,9.2,22.8,5,26.1,3.2V14.6z
		 M26.1,29v11.3c-4-2.8-8.1-6.5-10.3-11.3H26.1z M28.9,29h10.3c-2.2,4.8-6.4,8.5-10.3,11.3V29z M28.9,26.3v-9h11.2
		c0.2,0.7,0.3,1.3,0.5,2c0.4,2.5,0.2,4.8-0.4,6.9H28.9z M43.2,18.9c-0.1-0.5-0.2-1.1-0.3-1.6H52c0.2,1.4,0.2,2.9,0.2,4.5
		c0,1.6-0.1,3.1-0.2,4.5h-9C43.6,23.9,43.7,21.4,43.2,18.9z M46,5.9c2,1.2,3.5,3,4.5,5.4c0.4,0.9,0.8,2,1,3.2H42
		c-1.9-4.9-5.4-9-8.8-11.7c1.8,0.1,3.5,0.3,5.1,0.5C41.4,3.8,43.9,4.6,46,5.9z M9.2,5.9c2.1-1.3,4.7-2.2,7.6-2.6
		C18.4,3.2,20,3,21.7,2.9c-3.3,2.7-6.8,6.8-8.7,11.6H3.4c0.3-1.2,0.6-2.3,1.1-3.2C5.7,9,7.2,7.2,9.2,5.9z M9.2,37.6
		c-2-1.3-3.5-3-4.7-5.4c-0.4-0.9-0.8-2-1.1-3.2h9.4c1.6,4.1,4.7,8.1,9.2,11.7c-1.8-0.1-3.6-0.3-5.2-0.5
		C13.8,39.8,11.3,38.9,9.2,37.6z M46,37.6c-2.1,1.3-4.6,2.2-7.6,2.6c-1.7,0.2-3.6,0.4-5.5,0.5c4.5-3.6,7.6-7.5,9.3-11.7h9.4
		c-0.3,1.2-0.6,2.3-1,3.2C49.5,34.6,48,36.4,46,37.6z"/>
</g>
</svg>
