<?xml version="1.0" encoding="UTF-8"?>
<svg id="Layer_1" data-name="Layer 1" xmlns="http://www.w3.org/2000/svg" version="1.1" viewBox="0 0 19.8 22.3">
  <defs>
    <style>
      .cls-1 {
        fill: #000;
        stroke-width: 0px;
      }
    </style>
  </defs>
  <path class="cls-1" d="M19.4,3.7L11.2,0c-.4-.2-.9.1-.9.6v13.4c0,0-.2-.1-.3-.2-.5-.3-1.1-.5-1.8-.6-.6,0-1.3-.1-2.1-.1h0s-.6,0-.6,0h0c-.7,0-1.4,0-2,.1-.7,0-1.3.3-1.8.6-.5.3-.9.8-1.2,1.4-.3.6-.4,1.4-.4,2.4s.1,1.8.4,2.4c.3.6.7,1.1,1.2,1.4.5.3,1.1.5,1.8.6.7,0,1.5.1,2.3.1s1.6,0,2.4-.1c.7,0,1.3-.3,1.8-.6.5-.3.9-.8,1.2-1.4.3-.6.4-1.4.4-2.4s0-.3,0-.4h0V7.6l7.3,3.2c.4.2.9-.1.9-.6v-6c0-.3-.1-.5-.4-.6Z"/>
</svg>