<?xml version="1.0" encoding="utf-8"?>
<!-- Generator: Adobe Illustrator 28.1.0, SVG Export Plug-In . SVG Version: 6.00 Build 0)  -->
<svg version="1.1" xmlns="http://www.w3.org/2000/svg" xmlns:xlink="http://www.w3.org/1999/xlink" x="0px" y="0px"
	 viewBox="0 0 340.1 154.8" style="enable-background:new 0 0 340.1 154.8;" xml:space="preserve">
<style type="text/css">
	.st0{fill:#FFFFFF;}
	.st1{fill:#FF1400;}
	.st2{clip-path:url(#SVGID_00000093856148687255711070000002368487785376686776_);}
	.st3{fill:#FFFFFF;stroke:#000000;stroke-miterlimit:10;}
	.st4{fill:none;stroke:#000000;stroke-width:1.5;stroke-miterlimit:10;}
	.st5{fill:none;}
	.st6{clip-path:url(#SVGID_00000106853575102462708860000006978326763769690032_);}
	.st7{fill:#DB0A00;}
	.st8{clip-path:url(#SVGID_00000121991222349793115970000003206572749467173254_);}
	.st9{clip-path:url(#SVGID_00000034073744303559016630000003836313087785396665_);}
	.st10{clip-path:url(#SVGID_00000005951566440904353700000017252576054039001246_);}
	.st11{clip-path:url(#SVGID_00000068658756851670210050000007055562267238811313_);}
	.st12{clip-path:url(#SVGID_00000018204643574127703170000010681534571375754175_);}
	.st13{clip-path:url(#SVGID_00000017518819895007286720000008583630269596507533_);}
	.st14{clip-path:url(#SVGID_00000159433227236029040370000002864608243641436075_);}
	.st15{clip-path:url(#SVGID_00000095322870137816673780000008675738869068546746_);}
	.st16{clip-path:url(#SVGID_00000132062515705871739490000008829100990839301016_);}
	.st17{fill:#606060;}
	.st18{fill:#E8E8E8;}
	.st19{clip-path:url(#SVGID_00000023264319537545810280000010649427903394995369_);}
	.st20{clip-path:url(#SVGID_00000083801641694841127020000015723476061149463964_);}
	.st21{fill:#CE0000;}
	.st22{clip-path:url(#SVGID_00000041976750788849472780000006765360239407153058_);}
	.st23{clip-path:url(#SVGID_00000052792948018092395160000017824345561173936805_);}
	.st24{clip-path:url(#SVGID_00000003805381614161047710000011321575615558150057_);}
	.st25{clip-path:url(#SVGID_00000013879718353890851250000004240295971462155403_);}
	.st26{clip-path:url(#SVGID_00000070080499366482337520000017637101146234750849_);}
	.st27{clip-path:url(#SVGID_00000174581785855357942910000016085800656706996659_);}
	.st28{clip-path:url(#SVGID_00000154396322992652973040000004436061997983381381_);}
	.st29{clip-path:url(#SVGID_00000127753725575120642420000009392573773966606234_);}
	.st30{clip-path:url(#SVGID_00000088834943612651195380000016287749167447761538_);}
	.st31{clip-path:url(#SVGID_00000067940025303393884430000018334050474784803259_);}
	.st32{clip-path:url(#SVGID_00000080171659147356676450000018345170504262609293_);}
	.st33{clip-path:url(#SVGID_00000150089221441029435970000008072361695456482488_);}
	.st34{clip-path:url(#SVGID_00000151514110535957777990000002308845543665620875_);}
	.st35{clip-path:url(#SVGID_00000057832975869839924000000015962181719674351030_);}
	.st36{clip-path:url(#SVGID_00000020398237195427437040000002589872369077081505_);}
	.st37{clip-path:url(#SVGID_00000181781070878819638020000003705129372579363223_);}
	.st38{clip-path:url(#SVGID_00000065778244442767488990000018235236055250812084_);}
	.st39{clip-path:url(#SVGID_00000042721085205993721980000010328378082881879443_);}
	.st40{clip-path:url(#SVGID_00000081634126468188347970000016188073852267452545_);}
	.st41{clip-path:url(#SVGID_00000174563148379447019050000008207785407596141752_);}
	.st42{clip-path:url(#SVGID_00000103971305068852241040000008416655814764341405_);}
	.st43{clip-path:url(#SVGID_00000080164214034837826150000017289190450802136967_);}
	.st44{clip-path:url(#SVGID_00000152975050108065028270000001357362793445935505_);}
	.st45{opacity:0.7;}
	.st46{opacity:0.95;fill:#FF1400;}
	.st47{opacity:0.8;fill:#FF1400;}
	.st48{opacity:0.8;}
	.st49{fill:none;stroke:#FF1F95;stroke-width:3;stroke-linecap:round;stroke-linejoin:round;stroke-miterlimit:10;}
</style>
<g id="Layer_2">
</g>
<g id="Layer_1">
	<rect x="0" class="st1" width="340.1" height="154.8"/>
	<g>
		<polygon class="st0" points="218.5,132 248.2,132 248.2,23.2 222.5,23.2 222.5,88.1 221.8,88.1 202.7,23.2 170.8,23.2 170.8,132 
			196.5,132 196.5,69.3 197.2,69.3 		"/>
		<polygon class="st0" points="320.1,45.1 320.1,23.2 255.4,23.2 255.4,132 320.1,132 320.1,110.1 282.9,110.1 282.9,86.6 
			320.1,86.6 320.1,65.6 282.9,65.6 282.9,45.1 		"/>
		<path class="st0" d="M158.6,47.6c-3.4-7.4-8.2-13.1-14.6-17c-6.3-3.9-13.9-6.5-22.7-7.6c-8.8-1.2-18.5-1.7-29.2-1.7
			c-10.5,0-20.2,0.6-29.1,1.7c-8.9,1.2-16.5,3.7-22.8,7.6c-6.3,3.9-11.3,9.6-14.9,17C21.8,55,20,64.9,20,77.4
			c0,12.5,1.8,22.4,5.3,29.8c3.6,7.4,8.5,13.1,14.9,17c6.4,3.9,14,6.5,22.8,7.6c8.9,1.2,18.6,1.7,29.1,1.7c10.6,0,20.3-0.6,29.2-1.7
			c8.8-1.2,16.4-3.7,22.7-7.6c6.4-3.9,11.2-9.6,14.6-17c3.4-7.4,5.1-17.3,5.1-29.8C163.6,64.9,162,55,158.6,47.6z M138.6,90.1
			c-1.8,3.2-4.7,5.7-8.6,7.4c-3.9,1.7-9,2.9-15.3,3.5c-6.3,0.6-13.9,0.9-22.9,0.9s-16.5-0.3-22.8-0.9c-6.2-0.6-11.3-1.7-15.3-3.5
			c-4-1.7-6.9-4.2-8.7-7.4c-1.8-3.2-2.7-7.4-2.7-12.7c0-5.3,0.9-9.5,2.7-12.7c1.8-3.2,4.7-5.7,8.7-7.4c4-1.7,9.1-2.9,15.3-3.5
			c6.2-0.6,13.8-0.9,22.8-0.9c9,0,16.6,0.3,22.9,0.9c6.3,0.6,11.4,1.7,15.3,3.5c3.9,1.7,6.8,4.2,8.6,7.4c1.8,3.2,2.7,7.4,2.7,12.7
			C141.3,82.7,140.4,86.9,138.6,90.1z"/>
	</g>
</g>
</svg>
