<?xml version="1.0" encoding="utf-8"?>
<!-- Generator: Adobe Illustrator 28.1.0, SVG Export Plug-In . SVG Version: 6.00 Build 0)  -->
<svg version="1.1" xmlns="http://www.w3.org/2000/svg" xmlns:xlink="http://www.w3.org/1999/xlink" x="0px" y="0px"
	 viewBox="0 0 340.1 154.8" style="enable-background:new 0 0 340.1 154.8;" xml:space="preserve">
<style type="text/css">
	.st0{fill:#FFFFFF;}
	.st1{fill:#FF1400;}
	.st2{clip-path:url(#SVGID_00000127016757422400683580000015924328005593804162_);}
	.st3{fill:#FFFFFF;stroke:#000000;stroke-miterlimit:10;}
	.st4{fill:none;stroke:#000000;stroke-width:1.5;stroke-miterlimit:10;}
	.st5{fill:none;}
	.st6{clip-path:url(#SVGID_00000034773784151557255640000013725858915457334194_);}
	.st7{fill:#DB0A00;}
	.st8{clip-path:url(#SVGID_00000117647238094617199040000016554588900969805184_);}
	.st9{clip-path:url(#SVGID_00000081633982594812161220000002801911897323076286_);}
	.st10{clip-path:url(#SVGID_00000072282352686175217060000017849099370803559297_);}
	.st11{clip-path:url(#SVGID_00000099641632011783349980000015010205419857280672_);}
	.st12{clip-path:url(#SVGID_00000179603977589018361090000001345727504666594706_);}
	.st13{clip-path:url(#SVGID_00000158020005588101064660000013541300793128529057_);}
	.st14{clip-path:url(#SVGID_00000136369870273988728500000006837092217909972649_);}
	.st15{clip-path:url(#SVGID_00000160154389957427613480000018158613932741879438_);}
	.st16{clip-path:url(#SVGID_00000183242698392816777920000006323640813603437994_);}
	.st17{fill:#606060;}
	.st18{fill:#E8E8E8;}
	.st19{clip-path:url(#SVGID_00000127743859546914850700000010769454412660515715_);}
	.st20{clip-path:url(#SVGID_00000072962314379195231530000014533854416403570064_);}
	.st21{fill:#CE0000;}
	.st22{clip-path:url(#SVGID_00000078026667193943613110000007628948489215093410_);}
	.st23{clip-path:url(#SVGID_00000135691577785167913470000011508799619462087065_);}
	.st24{clip-path:url(#SVGID_00000127032488425257309020000012613668568231442865_);}
	.st25{clip-path:url(#SVGID_00000034781138076872517440000009797011358817445819_);}
	.st26{clip-path:url(#SVGID_00000027570355283680806530000004591634680778296470_);}
	.st27{clip-path:url(#SVGID_00000172426356881563926100000015453592397098801322_);}
	.st28{clip-path:url(#SVGID_00000116195833083937111380000015881587695361241017_);}
	.st29{clip-path:url(#SVGID_00000153706720660012273090000013673264543705324945_);}
	.st30{clip-path:url(#SVGID_00000028319256367441252610000013531479160534115234_);}
	.st31{clip-path:url(#SVGID_00000147198817563358599030000000407547298163498418_);}
	.st32{clip-path:url(#SVGID_00000098222550876917469570000018252199759052462216_);}
	.st33{clip-path:url(#SVGID_00000041977155114480370750000007301349756757477795_);}
	.st34{clip-path:url(#SVGID_00000081637895138795062870000011595035076688062366_);}
	.st35{clip-path:url(#SVGID_00000054945514131636293510000010046949779229317802_);}
	.st36{clip-path:url(#SVGID_00000177457378400239289290000012913017143496275101_);}
	.st37{clip-path:url(#SVGID_00000160902533055751811930000016325058763194770836_);}
	.st38{clip-path:url(#SVGID_00000007390935059239547770000002544120716090942385_);}
	.st39{clip-path:url(#SVGID_00000077323210174351415250000003942275783776719766_);}
	.st40{clip-path:url(#SVGID_00000182503468430968507950000009621729110773387430_);}
	.st41{clip-path:url(#SVGID_00000072265274338531544350000011669449722759359402_);}
	.st42{clip-path:url(#SVGID_00000078006789890292552770000009069093435131453610_);}
	.st43{clip-path:url(#SVGID_00000130625871918869872960000000444281251409160862_);}
	.st44{clip-path:url(#SVGID_00000034064266292509040210000003752971130558712992_);}
	.st45{opacity:0.7;}
	.st46{opacity:0.95;fill:#FF1400;}
	.st47{opacity:0.8;fill:#FF1400;}
	.st48{opacity:0.8;}
	.st49{fill:none;stroke:#FF1F95;stroke-width:3;stroke-linecap:round;stroke-linejoin:round;stroke-miterlimit:10;}
</style>
<g id="Layer_2">
</g>
<g id="Layer_1">
	<g>
		<polygon class="st1" points="169.7,0.8 0,1.6 0.7,154.8 170.4,153.9 340.1,153.1 339.3,0 		"/>
		<g>
			<polygon class="st0" points="217.5,131.7 246.9,131.6 246.3,22.4 220.9,22.6 221.2,87.6 220.6,87.6 201.3,22.7 169.8,22.8 
				170.3,131.9 195.7,131.8 195.4,69 196.1,69 			"/>
			<polygon class="st0" points="317.5,44.1 317.4,22.1 253.4,22.4 253.9,131.5 318,131.2 317.8,109.2 281.1,109.4 281,85.8 
				317.7,85.6 317.6,64.6 280.9,64.8 280.8,44.3 			"/>
			<path class="st0" d="M157.8,47.3c-3.4-7.4-8.2-13.1-14.5-17c-6.3-3.9-13.8-6.4-22.5-7.5c-8.7-1.1-18.3-1.6-28.9-1.6
				c-10.4,0.1-20,0.7-28.7,1.9c-8.8,1.2-16.3,3.8-22.6,7.8c-6.3,4-11.1,9.7-14.6,17.1c-3.5,7.4-5.2,17.4-5.1,29.9
				c0.1,12.5,1.9,22.5,5.4,29.9c3.6,7.4,8.5,13.1,14.8,17c6.3,3.9,13.8,6.4,22.6,7.5c8.8,1.1,18.4,1.6,28.8,1.6
				c10.5-0.1,20.1-0.7,28.8-1.9c8.7-1.2,16.2-3.8,22.5-7.8c6.3-4,11-9.7,14.3-17.1c3.3-7.4,4.9-17.4,4.9-29.9
				C162.9,64.7,161.2,54.7,157.8,47.3z M138.2,90c-1.8,3.2-4.6,5.7-8.5,7.5c-3.9,1.8-8.9,2.9-15.1,3.5c-6.2,0.6-13.7,0.9-22.6,1
				s-16.4-0.2-22.5-0.8c-6.2-0.5-11.2-1.7-15.2-3.4c-3.9-1.7-6.8-4.2-8.6-7.4C43.9,87.3,43,83,43,77.8c0-5.3,0.8-9.5,2.6-12.8
				c1.8-3.2,4.6-5.7,8.5-7.5c3.9-1.8,9-2.9,15.1-3.5c6.2-0.6,13.7-0.9,22.5-1c8.9,0,16.4,0.2,22.6,0.8c6.2,0.5,11.3,1.7,15.2,3.4
				c3.9,1.7,6.7,4.2,8.5,7.4c1.8,3.2,2.7,7.5,2.7,12.7C140.8,82.6,140,86.8,138.2,90z"/>
		</g>
	</g>
</g>
</svg>
