<?xml version="1.0" encoding="utf-8"?>
<!-- Generator: Adobe Illustrator 28.1.0, SVG Export Plug-In . SVG Version: 6.00 Build 0)  -->
<svg version="1.1" xmlns="http://www.w3.org/2000/svg" xmlns:xlink="http://www.w3.org/1999/xlink" x="0px" y="0px"
	 viewBox="0 0 1055.6 147.7" style="enable-background:new 0 0 1055.6 147.7;" xml:space="preserve">
<style type="text/css">
	.st0{fill:#FFFFFF;}
	.st1{fill:#FF1400;}
	.st2{clip-path:url(#SVGID_00000136398660421356293730000018298857842414245292_);}
	.st3{fill:#FFFFFF;stroke:#000000;stroke-miterlimit:10;}
	.st4{fill:none;stroke:#000000;stroke-width:1.5;stroke-miterlimit:10;}
	.st5{fill:none;}
	.st6{clip-path:url(#SVGID_00000096046196048532660090000007836173261953085865_);}
	.st7{fill:#DB0A00;}
	.st8{clip-path:url(#SVGID_00000046304208934870900100000013784671874436997248_);}
	.st9{clip-path:url(#SVGID_00000132069152506063575450000014932896013213633428_);}
	.st10{clip-path:url(#SVGID_00000066487599162582239490000014707006622002211004_);}
	.st11{clip-path:url(#SVGID_00000078006662269894680900000007215677546106961280_);}
	.st12{clip-path:url(#SVGID_00000183958838717794732300000004003865716638079116_);}
	.st13{clip-path:url(#SVGID_00000122714785569813300080000006262844379441610932_);}
	.st14{clip-path:url(#SVGID_00000179611298108084114850000017674328494042566580_);}
	.st15{clip-path:url(#SVGID_00000158725068918385010960000000786871780323240838_);}
	.st16{clip-path:url(#SVGID_00000072960110865649037560000015363930831891556284_);}
	.st17{fill:#606060;}
	.st18{fill:#E8E8E8;}
	.st19{clip-path:url(#SVGID_00000026125853779909066600000015696533541372839608_);}
	.st20{clip-path:url(#SVGID_00000124866164877560151570000004728092832414357914_);}
	.st21{fill:#CE0000;}
	.st22{clip-path:url(#SVGID_00000092438621166376273180000015392000040822130340_);}
	.st23{clip-path:url(#SVGID_00000000219990444202770880000013877873515299545244_);}
	.st24{clip-path:url(#SVGID_00000120545479630360785780000018435067261985424052_);}
	.st25{clip-path:url(#SVGID_00000053511784554145659960000010299876102450639017_);}
	.st26{clip-path:url(#SVGID_00000110472001423247488170000003158754568405555633_);}
	.st27{clip-path:url(#SVGID_00000106868582231096803860000009871314503618263706_);}
	.st28{clip-path:url(#SVGID_00000058570308438799642080000017861387361439062698_);}
	.st29{clip-path:url(#SVGID_00000107569639436257752930000010566392329359381380_);}
	.st30{clip-path:url(#SVGID_00000027562685439033913690000007295635999221484973_);}
	.st31{clip-path:url(#SVGID_00000078038981628194906550000009129971071797556656_);}
	.st32{clip-path:url(#SVGID_00000121280347690408706390000002658405580150822078_);}
	.st33{clip-path:url(#SVGID_00000040574148633980709630000002775268382195525282_);}
	.st34{clip-path:url(#SVGID_00000043432294614481942330000017597950525881724308_);}
	.st35{clip-path:url(#SVGID_00000088845950101359828050000010993390037756968355_);}
	.st36{clip-path:url(#SVGID_00000142140816343834928370000003803064654147620502_);}
	.st37{clip-path:url(#SVGID_00000037674943488246163490000001418662783869460148_);}
	.st38{clip-path:url(#SVGID_00000033344051765684546020000009331992569762324112_);}
	.st39{clip-path:url(#SVGID_00000037678202839924009180000002345343864210344603_);}
	.st40{clip-path:url(#SVGID_00000111154363538867225520000018062912228226026370_);}
	.st41{clip-path:url(#SVGID_00000088134314725183586260000002760824292257822104_);}
	.st42{clip-path:url(#SVGID_00000030465779552405647660000009186852930154320291_);}
	.st43{clip-path:url(#SVGID_00000092447175835505241450000008441567498910466462_);}
	.st44{clip-path:url(#SVGID_00000124138309013182469520000005332745761720005528_);}
	.st45{opacity:0.7;}
	.st46{opacity:0.95;fill:#FF1400;}
	.st47{opacity:0.8;fill:#FF1400;}
	.st48{opacity:0.8;}
	.st49{fill:none;stroke:#FF1F95;stroke-width:3;stroke-linecap:round;stroke-linejoin:round;stroke-miterlimit:10;}
</style>
<g id="Layer_2">
</g>
<g id="Layer_1">
	<g>
		<g>
			<path class="st1" d="M521,142.4c5.4-2,9.8-4.9,13.1-8.5c3.3-3.6,5.8-8.7,7.4-13.8c1.6-5.1,2.4-11,2.4-17.2c0-3.7-0.5-7.4-1.5-11
				c-1-3.6-2.5-6.9-4.6-9.9c-2.1-3-4.8-5.5-8-7.5c-3.2-2-7.2-3.2-11.7-3.6l-0.9-0.1v-0.9l0.8-0.2c3.9-0.8,7.2-2.2,9.9-4.1
				c2.7-1.9,5-4.3,6.7-7.1c1.8-2.8,3.1-6,3.9-9.4c0.9-3.5,1.3-7.1,1.3-10.8c0-10.7-3.2-19.6-9.3-25.8c-6.2-6.3-16-9.5-29.2-9.5
				h-55.9v142.6h55.9C509,145.5,515.6,144.4,521,142.4z M481.1,27.9h10.1c4.3,0,7.5,1.7,9.8,4.9c2.1,3.1,3.2,6.9,3.2,11.1
				c0,4.1-1.1,7.8-3.2,10.8c-2.2,3.2-5.5,4.8-9.8,4.8h-10.1V27.9z M481.1,120.4V83.1h11.6c3.8,0,7.2,1.6,10.1,4.8
				c2.9,3.2,4.3,7.8,4.3,13.7c0,6.3-1.5,11.1-4.3,14.2c-2.9,3.1-6.3,4.7-10.1,4.7H481.1z"/>
			<path class="st1" d="M563.4,137.4c4,3.9,9,6.6,14.9,8c6,1.5,13,2.2,20.7,2.2c7.8,0,14.9-0.7,20.8-2.2c5.9-1.4,10.8-4.1,14.8-8
				c4-3.9,7.1-9.2,9.2-15.8c2.1-6.6,3.2-15,3.2-25V2.8h-35.6v103.3c0,7.3-1.1,12.2-3.3,14.8c-2.2,2.6-5.3,3.9-9.1,3.9
				c-3.8,0-6.9-1.3-9.1-3.9c-2.2-2.6-3.3-7.4-3.3-14.8V2.8h-35.6v93.8c0,10,1.1,18.4,3.2,25C556.4,128.2,559.4,133.5,563.4,137.4z"
				/>
			<polygon class="st1" points="949.8,31.6 949.8,2.8 866.1,2.8 866.1,145.5 949.8,145.5 949.8,116.7 901.7,116.7 901.7,85.9 
				949.8,85.9 949.8,58.4 901.7,58.4 901.7,31.6 			"/>
			<path class="st1" d="M1011.7,88.5L1011.7,88.5c1.7,0.7,3.2,1.9,4.3,3.6c1.1,1.7,1.9,4,2.3,6.8c0.4,2.7,0.6,6.2,0.6,10.3v36.3
				h35.6v-39.2c0-9.5-1.7-17-4.9-22.4c-3.2-5.2-9.2-8.3-17.9-9l-0.9-0.1v-0.9l0.9-0.1c8.3-1.3,14.4-4.8,18.1-10.5
				c3.8-5.7,5.7-13.5,5.7-22.9c0-5.4-0.7-10.5-2.1-15.1c-1.4-4.6-3.6-8.5-6.7-11.9c-3-3.3-7.1-5.9-12-7.7c-4.9-1.8-11-2.8-18-2.8
				H959v142.6h35.6v-58h11C1008,87.5,1010.1,87.8,1011.7,88.5z M994.6,64V27.9h8.3c5.9,0,10.3,1.4,13,4.2c2.7,2.8,4,7.4,4,13.7
				c0,5.4-1.4,9.8-4.1,13.1c-2.8,3.4-7.1,5.1-12.8,5.1H994.6z"/>
			<path class="st1" d="M709.1,88.5L709.1,88.5c1.7,0.7,3.2,1.9,4.3,3.6c1.1,1.7,1.9,4,2.3,6.8c0.4,2.7,0.6,6.2,0.6,10.3v36.3H752
				v-39.2c0-9.5-1.7-17-4.9-22.4c-3.2-5.2-9.2-8.3-17.9-9l-0.9-0.1v-0.9l0.9-0.1c8.3-1.3,14.4-4.8,18.1-10.5
				c3.8-5.7,5.7-13.5,5.7-22.9c0-5.4-0.7-10.5-2.1-15.1c-1.4-4.6-3.6-8.5-6.7-11.9c-3-3.3-7.1-5.9-12-7.7c-4.9-1.8-11-2.8-18-2.8
				h-57.9v142.6H692v-58h11C705.3,87.5,707.4,87.8,709.1,88.5z M692,64V27.9h8.3c5.9,0,10.3,1.4,13,4.2c2.7,2.8,4,7.4,4,13.7
				c0,5.4-1.4,9.8-4.1,13.1c-2.8,3.4-7.1,5.1-12.8,5.1H692z"/>
			<path class="st1" d="M822.4,46.6h34.4c-0.1-8.2-1.2-15.2-3.4-21c-2.2-6-5.4-10.9-9.3-14.7c-3.9-3.8-8.7-6.6-14.1-8.3
				c-5.5-1.7-11.6-2.6-18-2.6c-10.9,0-19.9,1.6-26.7,4.9c-6.8,3.2-12.2,8-16.1,14.1c-3.9,6.2-6.6,14-8,23.1
				c-1.4,9.2-2.1,20-2.1,32.1c0,12,0.4,22.7,1.1,31.9c0.7,9.2,2.5,17,5.3,23.2c2.7,6.1,6.8,10.8,12.1,13.8
				c5.4,3.1,12.8,4.6,22.2,4.6c3.2,0,6.4-0.2,9.5-0.6c3.1-0.4,6-1.1,8.7-2.1c2.6-1,5-2.4,7.2-4.4c2.1-1.9,3.8-4.4,4.9-7.3l0.3-0.7
				h1.1v12.8h25.3V68.9h-46.6v23.5h13.4v1c0,6.2-0.3,11.4-0.9,15.5c-0.6,4.1-1.5,7.3-2.6,9.6c-1.2,2.4-2.7,4.1-4.4,5
				c-1.7,0.9-3.7,1.3-5.8,1.3c-3.1,0-5.6-0.8-7.5-2.5c-1.8-1.6-3.2-4.5-4.2-8.4c-0.9-3.8-1.5-9-1.7-15.5c-0.3-6.4-0.4-14.5-0.4-24.3
				c0-9.7,0.1-17.9,0.4-24.3c0.3-6.5,0.9-11.7,1.7-15.5c0.9-4,2.4-6.8,4.4-8.5c2-1.6,4.7-2.5,8-2.5c4.9,0,8.2,2.4,9.7,7
				C821.7,33.9,822.4,39.3,822.4,46.6z"/>
		</g>
		<polygon class="st1" points="256.7,145.5 295,145.5 295,2.8 261.8,2.8 261.8,87.9 260.9,87.9 236.2,2.8 195,2.8 195,145.5 
			228.2,145.5 228.2,63.3 229,63.3 		"/>
		<polygon class="st1" points="387.9,31.6 387.9,2.8 304.3,2.8 304.3,145.5 387.9,145.5 387.9,116.7 339.9,116.7 339.9,85.9 
			387.9,85.9 387.9,58.4 339.9,58.4 339.9,31.6 		"/>
		<path class="st1" d="M179.2,34.8c-4.4-9.7-10.6-17.1-18.8-22.3c-8.2-5.1-18-8.5-29.4-10C119.5,1,107,0.3,93.2,0.3
			C79.7,0.3,67.1,1,55.7,2.5C44.2,4,34.3,7.4,26.1,12.5c-8.2,5.1-14.6,12.6-19.2,22.3C2.3,44.5,0,57.5,0,73.8
			c0,16.4,2.3,29.4,6.9,39.1c4.6,9.7,11,17.1,19.2,22.3c8.2,5.1,18.1,8.5,29.5,10c11.5,1.5,24,2.3,37.6,2.3
			c13.7,0,26.3-0.8,37.7-2.3c11.4-1.5,21.2-4.8,29.4-10c8.2-5.1,14.5-12.6,18.8-22.3c4.4-9.7,6.5-22.7,6.5-39.1
			C185.7,57.5,183.5,44.5,179.2,34.8z M153.3,90.5c-2.3,4.2-6,7.4-11.1,9.7c-5.1,2.3-11.7,3.8-19.8,4.5c-8.1,0.8-18,1.1-29.6,1.1
			s-21.4-0.4-29.4-1.1c-8-0.8-14.6-2.3-19.8-4.5c-5.1-2.3-8.9-5.5-11.2-9.7c-2.3-4.2-3.5-9.7-3.5-16.6c0-6.9,1.2-12.4,3.5-16.7
			c2.3-4.2,6.1-7.4,11.2-9.7c5.1-2.3,11.7-3.8,19.8-4.5c8-0.8,17.9-1.1,29.4-1.1c11.6,0,21.4,0.4,29.6,1.1
			c8.1,0.8,14.7,2.3,19.8,4.5c5.1,2.3,8.8,5.5,11.1,9.7c2.3,4.2,3.5,9.8,3.5,16.7C156.8,80.7,155.6,86.3,153.3,90.5z"/>
	</g>
</g>
</svg>
