<?xml version="1.0" encoding="utf-8"?>
<!-- Generator: Adobe Illustrator 28.1.0, SVG Export Plug-In . SVG Version: 6.00 Build 0)  -->
<svg version="1.1" xmlns="http://www.w3.org/2000/svg" xmlns:xlink="http://www.w3.org/1999/xlink" x="0px" y="0px"
	 viewBox="0 0 340.1 154.8" style="enable-background:new 0 0 340.1 154.8;" xml:space="preserve">
<style type="text/css">
	.st0{fill:#FFFFFF;}
	.st1{fill:#FF1400;}
	.st2{clip-path:url(#SVGID_00000054968076060810186570000017333419699619155619_);}
	.st3{fill:#FFFFFF;stroke:#000000;stroke-miterlimit:10;}
	.st4{fill:none;stroke:#000000;stroke-width:1.5;stroke-miterlimit:10;}
	.st5{fill:none;}
	.st6{clip-path:url(#SVGID_00000182526986474576712000000000877232834231623048_);}
	.st7{fill:#DB0A00;}
	.st8{clip-path:url(#SVGID_00000156558839217110371520000010542613341795863937_);}
	.st9{clip-path:url(#SVGID_00000135690350297323579020000002070794910669654456_);}
	.st10{clip-path:url(#SVGID_00000007409467554278174780000007224747669607805829_);}
	.st11{clip-path:url(#SVGID_00000052811245283233642840000018446627589991002502_);}
	.st12{clip-path:url(#SVGID_00000011000997150156800420000001955011481943991439_);}
	.st13{clip-path:url(#SVGID_00000028293577480599209330000002278371126931483058_);}
	.st14{clip-path:url(#SVGID_00000005951091641642187240000001911305688142930581_);}
	.st15{clip-path:url(#SVGID_00000132772174101088353670000017667678202350914978_);}
	.st16{clip-path:url(#SVGID_00000014629056640816041380000017377858446650364072_);}
	.st17{fill:#606060;}
	.st18{fill:#E8E8E8;}
	.st19{clip-path:url(#SVGID_00000055705771043594021690000003124579425615545013_);}
	.st20{clip-path:url(#SVGID_00000146462077081779304530000009566681253898569631_);}
	.st21{fill:#CE0000;}
	.st22{clip-path:url(#SVGID_00000014635254855828677240000008477911307466513584_);}
	.st23{clip-path:url(#SVGID_00000015350720725444563800000007220056398757804681_);}
	.st24{clip-path:url(#SVGID_00000008840740624577779070000008559571192741710734_);}
	.st25{clip-path:url(#SVGID_00000131367136043971869860000005635326940702380454_);}
	.st26{clip-path:url(#SVGID_00000097481782631765056410000004893296006409863560_);}
	.st27{clip-path:url(#SVGID_00000018237516807175555720000003790262908736085632_);}
	.st28{clip-path:url(#SVGID_00000030479007507321550270000018151570730073838999_);}
	.st29{clip-path:url(#SVGID_00000088850955920583768470000000346307445348617888_);}
	.st30{clip-path:url(#SVGID_00000040537920962104143940000014511430612406965399_);}
	.st31{clip-path:url(#SVGID_00000002385685182985525560000013975800062331662751_);}
	.st32{clip-path:url(#SVGID_00000175322072506584141320000009024696731713114259_);}
	.st33{clip-path:url(#SVGID_00000060740885457677708890000017720805680665875075_);}
	.st34{clip-path:url(#SVGID_00000055669320797595974880000008554087747643233982_);}
	.st35{clip-path:url(#SVGID_00000139268208655106948570000007472281937267126182_);}
	.st36{clip-path:url(#SVGID_00000088816202271162080510000015706602907596876191_);}
	.st37{clip-path:url(#SVGID_00000165940391436080341830000010873289072882356924_);}
	.st38{clip-path:url(#SVGID_00000042699323884688719970000012975636624995514001_);}
	.st39{clip-path:url(#SVGID_00000048493647752830495810000012513119997474436523_);}
	.st40{clip-path:url(#SVGID_00000168824716521698134630000014977845161155523985_);}
	.st41{clip-path:url(#SVGID_00000006699205387134628200000017241594443349699219_);}
	.st42{clip-path:url(#SVGID_00000065768442310138709810000011904349507394222248_);}
	.st43{clip-path:url(#SVGID_00000061445058966764204760000000076588698412213943_);}
	.st44{clip-path:url(#SVGID_00000021084223016759805410000000307572057856045234_);}
	.st45{opacity:0.7;}
	.st46{opacity:0.95;fill:#FF1400;}
	.st47{opacity:0.8;fill:#FF1400;}
	.st48{opacity:0.8;}
	.st49{fill:none;stroke:#FF1F95;stroke-width:3;stroke-linecap:round;stroke-linejoin:round;stroke-miterlimit:10;}
</style>
<g id="Layer_2">
</g>
<g id="Layer_1">
	<g>
		<polygon class="st1" points="169.7,0.8 0,1.6 0.7,154.8 170.4,153.9 340.1,153.1 339.3,0 		"/>
		<g>
			<polygon class="st0" points="217.5,131.7 246.9,131.6 246.3,22.4 220.9,22.6 221.2,87.6 220.6,87.6 201.3,22.7 169.8,22.8 
				170.3,131.9 195.7,131.8 195.4,69 196.1,69 			"/>
			<polygon class="st0" points="317.5,44.1 317.4,22.1 253.4,22.4 253.9,131.5 318,131.2 317.8,109.2 281.1,109.4 281,85.8 
				317.7,85.6 317.6,64.6 280.9,64.8 280.8,44.3 			"/>
			<path class="st0" d="M157.8,47.3c-3.4-7.4-8.2-13.1-14.5-17c-6.3-3.9-13.8-6.4-22.5-7.5c-8.7-1.1-18.3-1.6-28.9-1.6
				c-10.4,0.1-20,0.7-28.7,1.9c-8.8,1.2-16.3,3.8-22.6,7.8c-6.3,4-11.1,9.7-14.6,17.1c-3.5,7.4-5.2,17.4-5.1,29.9
				c0.1,12.5,1.9,22.5,5.4,29.9c3.6,7.4,8.5,13.1,14.8,17c6.3,3.9,13.8,6.4,22.6,7.5c8.8,1.1,18.4,1.6,28.8,1.6
				c10.5-0.1,20.1-0.7,28.8-1.9c8.7-1.2,16.2-3.8,22.5-7.8c6.3-4,11-9.7,14.3-17.1c3.3-7.4,4.9-17.4,4.9-29.9
				C162.9,64.7,161.2,54.7,157.8,47.3z M138.2,90c-1.8,3.2-4.6,5.7-8.5,7.5c-3.9,1.8-8.9,2.9-15.1,3.5c-6.2,0.6-13.7,0.9-22.6,1
				s-16.4-0.2-22.5-0.8c-6.2-0.5-11.2-1.7-15.2-3.4c-3.9-1.7-6.8-4.2-8.6-7.4C43.9,87.3,43,83,43,77.8c0-5.3,0.8-9.5,2.6-12.8
				c1.8-3.2,4.6-5.7,8.5-7.5c3.9-1.8,9-2.9,15.1-3.5c6.2-0.6,13.7-0.9,22.5-1c8.9,0,16.4,0.2,22.6,0.8c6.2,0.5,11.3,1.7,15.2,3.4
				c3.9,1.7,6.7,4.2,8.5,7.4c1.8,3.2,2.7,7.5,2.7,12.7C140.8,82.6,140,86.8,138.2,90z"/>
		</g>
	</g>
</g>
</svg>
